<svg xmlns="http://www.w3.org/2000/svg" xmlns:xlink="http://www.w3.org/1999/xlink" viewBox="0 0 205.85 205.87"><defs><style>.cls-1{mask:url(#mask);}.cls-2{fill:#ff0062;}.cls-3{fill:url(#linear-gradient);}.cls-4{fill:url(#linear-gradient-2);}.cls-5{fill:none;}.cls-6{fill:#fff;}.cls-7{filter:url(#luminosity-invert-noclip);}</style><filter id="luminosity-invert-noclip" x="0" y="-8967.35" width="205.85" height="32766" filterUnits="userSpaceOnUse" color-interpolation-filters="sRGB"><feColorMatrix values="-1 0 0 0 1 0 -1 0 0 1 0 0 -1 0 1 0 0 0 1 0" result="invert"/><feFlood flood-color="#fff" result="bg"/><feBlend in="invert" in2="bg"/></filter><mask id="mask" x="0" y="-8967.35" width="205.85" height="32766" maskUnits="userSpaceOnUse"><g class="cls-7"/></mask><linearGradient id="linear-gradient" x1="-3.94" y1="145.67" x2="18.84" y2="145.67" gradientUnits="userSpaceOnUse"><stop offset="0" stop-color="#fff" stop-opacity="0"/><stop offset="0.5" stop-color="#fff" stop-opacity="0.8"/><stop offset="1" stop-color="#fff" stop-opacity="0"/></linearGradient><linearGradient id="linear-gradient-2" x1="-965" y1="-126.71" x2="-942.21" y2="-126.71" gradientTransform="translate(19.28 960.41) rotate(90)" xlink:href="#linear-gradient"/></defs><g id="Layer_2" data-name="Layer 2"><g id="Layer_1-2" data-name="Layer 1"><g class="cls-1"><path class="cls-2" d="M8.44,95.87a27.48,27.48,0,0,0-8.08,19.5H0v85.52a28.12,28.12,0,0,0,.45,5c0-.14,0-.27,0-.41,0-.43.09-.88.16-1.31a25.34,25.34,0,0,1,.49-2.6c.07-.27.14-.55.23-.82a5.25,5.25,0,0,1,.18-.65c.11-.37.23-.73.34-1.09s.29-.79.45-1.18l.48-1.1c.16-.37.34-.73.52-1.09s.38-.72.59-1.09a27.18,27.18,0,0,1,4.5-5.92l10.4-10.41V85.48Z"/><path class="cls-3" d="M8.44,95.87a27.48,27.48,0,0,0-8.08,19.5H0v85.52a28.12,28.12,0,0,0,.45,5c0-.14,0-.27,0-.41,0-.43.09-.88.16-1.31a25.34,25.34,0,0,1,.49-2.6c.07-.27.14-.55.23-.82a5.25,5.25,0,0,1,.18-.65c.11-.37.23-.73.34-1.09s.29-.79.45-1.18l.48-1.1c.16-.37.34-.73.52-1.09s.38-.72.59-1.09a27.18,27.18,0,0,1,4.5-5.92l10.4-10.41V85.48Z"/><path class="cls-2" d="M200.88,0H115.36V.36a27.46,27.46,0,0,0-19.5,8.08L86.12,18.2h6.42l.25-.25.14.25h85.9l9.77-9.76a27.18,27.18,0,0,1,5.92-4.5c.37-.21.73-.41,1.09-.59s.72-.36,1.08-.52l1.11-.48c.39-.16.77-.29,1.18-.45l1.08-.34a5.39,5.39,0,0,1,.66-.18c.27-.09.54-.16.81-.23a25,25,0,0,1,2.61-.49c.43-.07.88-.12,1.31-.16.13,0,.27,0,.4,0A27.92,27.92,0,0,0,200.88,0Z"/><path class="cls-4" d="M200.88,0H115.36V.36a27.46,27.46,0,0,0-19.5,8.08L86.12,18.2h6.42l.25-.25.14.25h85.9l9.77-9.76a27.18,27.18,0,0,1,5.92-4.5c.37-.21.73-.41,1.09-.59s.72-.36,1.08-.52l1.11-.48c.39-.16.77-.29,1.18-.45l1.08-.34a5.39,5.39,0,0,1,.66-.18c.27-.09.54-.16.81-.23a25,25,0,0,1,2.61-.49c.43-.07.88-.12,1.31-.16.13,0,.27,0,.4,0A27.92,27.92,0,0,0,200.88,0Z"/><polygon class="cls-2" points="178.82 18.21 18.85 178.18 18.85 85.47 86.11 18.21 178.82 18.21"/><polyline class="cls-5" points="18.84 85.48 18.85 85.47 86.11 18.21 86.12 18.21 86.12 18.2"/><polyline class="cls-5" points="18.83 178.2 18.84 178.2 18.84 178.19 18.85 178.18 178.82 18.21 178.83 18.21 178.83 18.2"/><path class="cls-6" d="M38.57,105.53l.72,1.13,8.77-8.77c4.95-5,6.8-10.39,3.42-13.77-2.24-2.24-5.82-1.25-8.76.79,2.22-3.06,3.56-6.94,1-9.55-2.19-2.19-5.86-1.53-9.86,2.47l-8.06,8.06.68,1.22c2.53-2.22,3-2.27,4.7.37l8,12.55C40.67,102.48,40.7,103.09,38.57,105.53Zm-.5-17-3.79-5.92c-1.1-1.7-1-2,.22-3.22,1.51-1.51,3.43-2,5.31-.09,2,2,2.38,5.11-.91,8.4Zm1.73.6c2.46-2.46,5-3.33,7.29-1s2.67,5.88.3,8.25c-1.45,1.45-2.94,2.15-4.53-.32L38.94,90Z"/><path class="cls-6" d="M49.4,69l8.11,12.74c1.62,2.5,1.47,3.07-.74,5.6l.69,1.16L72.69,73.26c-.45-1.4-1.77-4.67-2.39-6l-1.44.7a14,14,0,0,1,.37,4.87c-.16,1.32-.61,2.18-2.29,3.87l-1.66,1.66c-1.81,1.81-2.5,1.6-4-.69L57.5,71.82l2.43-2.43c2.46-2.46,2.7-2.28,4.67-.19l1.13-1.12-4.35-6.79-1.13,1.13c1,2.68,1.19,3.08-1.3,5.57l-2.31,2.32-4.21-6.46c-.76-1.24-.48-1.85.65-3l2-2.05c2-2,3.08-1.6,5.58.66l1-1.21c-.88-1.34-2.71-3.83-3.46-5-1.1,1.15-2.55,2.6-4.09,4.15l-10.05,10,.66,1.25C47.36,66.54,47.76,66.46,49.4,69Z"/><path class="cls-6" d="M74.72,56.13l1.58-.31c2.57-.57,4.46-.46,5.86.94,1.61,1.61,1.62,3.93-.37,5.92-3.11,3.11-6.69,1.78-8.89.18l-1,1.17c2.1,2.28,3.39,3.68,3.94,4.41a19,19,0,0,0,6.75-4.33c4-4,5-9.31,1.71-12.58-2.33-2.32-5.54-1.86-8.93-1.1l-1.64.37c-2.57.57-4,.45-5.23-.79a3.78,3.78,0,0,1,.16-5.7c2.93-2.94,5.57-1.25,7.38.32l1-1.17a37.37,37.37,0,0,1-3.44-4.74A25.25,25.25,0,0,0,67.94,43c-4.06,4.06-4.56,8.83-1.47,11.92C68.69,57.1,71.92,56.71,74.72,56.13Z"/><path class="cls-6" d="M90.54,21.1,78.77,32.86c-.8.8-1.06,1.07-1.94.84l-.8.8a59.29,59.29,0,0,1,3.47,6.14l1.18-1.13A13.79,13.79,0,0,1,80,36.06c-.12-1.36.12-2.18,2.32-4.38l1.24-1.24,9.89,15.4c1.46,2.29,1.62,2.92-.75,5.6l.69,1.16L102.92,43l-.68-1.16c-2.92,2.6-3.41,2.41-4.92.06L87.37,26.58l1.72-1.71c1.9-1.9,2.77-2,3.9-1.32a11.12,11.12,0,0,1,2.08,1.67L96.18,24c-1.25-1.76-2.92-4.09-3.71-5.56,0-.07-.11-.18-.14-.25l-.26.25-.63.64A2.48,2.48,0,0,1,90.54,21.1Z"/><path class="cls-6" d="M42.83,127.18l-1.64.38c-2.58.56-4,.45-5.23-.79a3.79,3.79,0,0,1,.16-5.71c2.93-2.93,5.57-1.24,7.38.33l1-1.18a37.37,37.37,0,0,1-3.44-4.74,25.58,25.58,0,0,0-5.72,4.24c-4.06,4.06-4.56,8.84-1.47,11.93,2.22,2.21,5.45,1.83,8.25,1.25l1.58-.32c2.57-.56,4.46-.45,5.86,1,1.61,1.61,1.62,3.93-.37,5.91-3.11,3.11-6.69,1.79-8.89.18l-1,1.17c2.1,2.28,3.39,3.69,3.94,4.41a18.85,18.85,0,0,0,6.75-4.33c4-4,5-9.3,1.71-12.58C49.43,126,46.22,126.43,42.83,127.18Z"/><path class="cls-6" d="M69.07,111.92a14.24,14.24,0,0,1,.36,4.87c-.16,1.32-.6,2.18-2.29,3.87l-1.66,1.66c-1.81,1.81-2.5,1.6-4-.69l-3.83-5.84,2.43-2.43c2.46-2.46,2.7-2.28,4.68-.18l1.12-1.13-4.35-6.79-1.13,1.13c1,2.68,1.19,3.09-1.3,5.58l-2.31,2.31-4.2-6.46c-.77-1.24-.48-1.84.64-3l2-2c2-2,3.08-1.61,5.57.65l1.05-1.2c-.87-1.35-2.71-3.84-3.45-5-1.1,1.15-2.56,2.61-4.1,4.15l-10,10L45,112.7c2.56-2.19,3-2.26,4.59.27l8.12,12.73c1.61,2.51,1.47,3.07-.75,5.6l.69,1.16,15.23-15.23c-.45-1.4-1.77-4.67-2.39-6Z"/><path class="cls-6" d="M86.56,93.79A19.54,19.54,0,0,1,87,99a6.46,6.46,0,0,1-2.28,4.07l-1.51,1.51c-1.72,1.72-2.32,1.47-3.91-.95L71.26,91c-1.49-2.26-1.52-2.76.78-5.32l-.74-1.16-9.07,9.07.68,1.22c2.47-2.15,3-2.21,4.41.08l8.27,12.89c1.62,2.51,1.59,3-.54,5.45l.72,1.13,14.7-14.7A45.44,45.44,0,0,0,88,93.07Z"/><path class="cls-6" d="M103.67,76.69a19.94,19.94,0,0,1,.45,5.2A6.4,6.4,0,0,1,101.85,86l-1.52,1.52c-1.71,1.71-2.31,1.47-3.91-1L88.36,73.89c-1.49-2.26-1.52-2.76.78-5.32l-.74-1.16-9.07,9.07L80,77.7c2.47-2.16,2.95-2.21,4.41.08l8.27,12.89c1.62,2.5,1.59,3-.53,5.45l.71,1.13,14.7-14.7A45.39,45.39,0,0,0,105.08,76Z"/><path class="cls-6" d="M97.12,60.59c2.55-2.18,2.95-2.26,4.59.27l8.11,12.74c1.62,2.5,1.47,3.07-.74,5.59l.69,1.17L125,65.12c-.45-1.4-1.77-4.67-2.39-6l-1.44.7a14,14,0,0,1,.37,4.86c-.16,1.32-.61,2.19-2.29,3.87l-1.66,1.66c-1.81,1.81-2.5,1.6-4-.69l-3.82-5.84,2.43-2.43c2.46-2.46,2.7-2.27,4.67-.18L118,59.94l-4.35-6.78-1.13,1.12c1,2.68,1.19,3.09-1.3,5.58L109,62.17l-4.21-6.46c-.76-1.24-.48-1.84.65-3l2-2c2-2,3.08-1.6,5.58.65l1-1.2c-.88-1.35-2.71-3.84-3.46-5-1.1,1.16-2.55,2.61-4.09,4.15L96.46,59.35Z"/><path class="cls-6" d="M119.5,42.91l8.23,12.73c1.62,2.44,1.35,3.19-.57,5.47l.72,1.14,9-9-.69-1.16c-2.52,2-3.06,2.15-4.67-.29L128.34,47l.83-.83c.89-.89,1.58-.79,2.84-.31,1.67.66,4,1.59,5.61,2,2.58.69,4.34.67,8.37-3.3l.5-.51-.58-1.11c-1.44.81-2.52,1.15-7.43-.32-1.51-.5-3.4-1.15-5.31-1.93,1.72-3.09,2.41-6.9-.15-9.46s-6.24-2.2-10.59,2.15l-8.09,8.09.68,1.22C117.43,40.54,117.89,40.35,119.5,42.91Zm3.44-7.77c1.93-1.93,4.35-1.4,6.07.32,2.82,2.82,2.46,6.14-.71,9.31l-.8.8-4.82-7.43C121.68,36.61,122.05,36,122.94,35.14Z"/></g></g></g></svg>