<svg xmlns="http://www.w3.org/2000/svg" viewBox="0 0 100 20"><defs><style>.cls-1{fill:#fff;}</style></defs><g id="Layer_2" data-name="Layer 2"><g id="Layer_1-2" data-name="Layer 1"><path class="cls-1" d="M0,0V20H100V0ZM16,19l-6-3.14L4,19l1.14-6.66L.33,7.63,7,6.66,10,.6l3,6.06,6.68,1-4.83,4.71Zm20,0-6-3.14L24,19l1.14-6.66L20.33,7.63l6.68-1L30,.6l3,6.06,6.68,1-4.83,4.71Zm20,0-6-3.14L44,19l1.14-6.66L40.33,7.63l6.68-1L50,.6l3,6.06,6.68,1-4.83,4.71Zm20,0-6-3.14L64,19l1.14-6.66L60.33,7.63l6.68-1L70,.6l3,6.06,6.68,1-4.83,4.71Zm20,0-6-3.14L84,19l1.14-6.66L80.33,7.63l6.68-1L90,.6l3,6.06,6.68,1-4.83,4.71Z"/></g></g></svg>